<?xml version="1.0" standalone="no"?>
<!DOCTYPE svg PUBLIC "-//W3C//DTD SVG 20010904//EN"
 "http://www.w3.org/TR/2001/REC-SVG-20010904/DTD/svg10.dtd">
<svg version="1.0" xmlns="http://www.w3.org/2000/svg"
 width="712.000000pt" height="65.000000pt" viewBox="0 0 712.000000 65.000000"
 preserveAspectRatio="xMidYMid meet">

<g transform="translate(0.000000,65.000000) scale(0.100000,-0.100000)"
fill="#000000" stroke="none">
<path d="M273 542 c-6 -10 -30 -24 -52 -31 -54 -16 -116 -78 -132 -131 -7 -23
-21 -47 -31 -54 -17 -12 -17 -14 1 -30 11 -10 22 -30 26 -44 13 -55 56 -101
122 -133 35 -17 67 -38 70 -46 5 -13 8 -13 22 4 9 11 37 28 63 37 52 19 114
82 125 126 3 14 15 35 26 48 l20 22 -20 23 c-11 12 -23 34 -27 49 -9 41 -65
99 -116 121 -25 11 -54 28 -65 38 -20 18 -21 18 -32 1z m-3 -82 c0 -17 -7 -20
-45 -20 -25 0 -45 2 -45 5 0 8 54 34 73 35 10 0 17 -7 17 -20z m113 -5 c20
-14 19 -15 -31 -15 -46 0 -52 2 -52 21 0 19 4 21 31 15 16 -3 40 -13 52 -21z
m-198 -72 c-24 -60 -26 -74 -17 -100 5 -16 13 -36 17 -45 6 -14 2 -18 -19 -18
-33 0 -48 29 -48 90 0 61 15 90 48 90 21 0 25 -4 19 -17z m144 2 c59 -30 59
-104 -1 -148 -70 -52 -163 49 -112 121 28 41 69 50 113 27z m119 -10 c15 -33
15 -83 1 -124 -9 -25 -16 -31 -40 -31 -29 0 -29 0 -14 30 8 16 15 43 15 60 0
17 -7 44 -15 60 -15 30 -15 30 13 30 21 0 32 -7 40 -25z m-48 -193 c0 -15 -70
-42 -111 -42 -42 0 -102 21 -113 39 -5 8 27 11 108 11 64 0 116 -4 116 -8z"/>
<path d="M254 336 c-3 -8 -4 -25 -2 -38 2 -18 9 -23 32 -23 36 0 56 27 40 53
-14 22 -62 28 -70 8z"/>
<path d="M2354 476 c-41 -18 -64 -52 -64 -94 0 -45 32 -72 116 -97 80 -24 100
-47 65 -76 -33 -27 -68 -24 -103 11 -37 37 -88 42 -88 9 0 -33 62 -89 102 -91
124 -5 178 27 178 107 0 46 -33 80 -91 95 -78 20 -92 26 -103 44 -9 13 -7 20
8 32 31 22 72 17 94 -11 24 -31 82 -36 82 -7 0 68 -114 113 -196 78z"/>
<path d="M600 309 l0 -170 38 3 37 3 3 73 3 72 64 0 64 0 3 -72 3 -73 35 0 35
0 3 168 2 167 -40 0 -40 0 0 -65 0 -65 -65 0 -65 0 0 65 0 65 -40 0 -40 0 0
-171z"/>
<path d="M940 449 c0 -28 2 -30 33 -27 27 2 33 8 35 31 3 25 1 27 -32 27 -33
0 -36 -2 -36 -31z"/>
<path d="M1750 310 l0 -170 35 0 35 0 0 84 c0 89 12 116 49 116 31 0 40 -23
43 -110 l3 -85 33 -3 32 -3 0 96 c0 91 -9 131 -34 147 -20 14 -89 8 -108 -9
-17 -15 -18 -14 -18 45 l0 62 -35 0 -35 0 0 -170z"/>
<path d="M2032 453 c2 -23 8 -29 36 -31 30 -3 32 -1 32 27 0 29 -3 31 -36 31
-33 0 -35 -2 -32 -27z"/>
<path d="M4350 309 l0 -170 38 3 37 3 3 168 2 167 -40 0 -40 0 0 -171z"/>
<path d="M4940 425 c0 -51 -10 -69 -25 -45 -12 20 -92 11 -120 -12 -52 -45
-52 -161 0 -205 29 -26 102 -32 124 -10 11 10 14 10 18 0 3 -7 18 -13 34 -13
l29 0 0 170 0 170 -30 0 c-30 0 -30 -1 -30 -55z m-19 -102 c8 -9 14 -35 14
-58 0 -51 -18 -75 -55 -75 -37 0 -55 24 -55 75 0 51 18 75 55 75 15 0 34 -7
41 -17z"/>
<path d="M5060 450 c0 -27 3 -30 30 -30 27 0 30 3 30 30 0 27 -3 30 -30 30
-27 0 -30 -3 -30 -30z"/>
<path d="M5580 311 l0 -171 35 0 35 0 0 60 0 60 48 1 c75 0 114 18 136 62 23
47 15 95 -20 128 -23 22 -36 24 -130 27 l-104 4 0 -171z m183 88 c31 -43 -5
-83 -71 -77 -37 3 -37 4 -40 51 l-3 47 50 0 c39 0 53 -4 64 -21z"/>
<path d="M6382 313 l3 -168 118 -3 117 -3 0 36 0 35 -80 0 -80 0 0 135 0 135
-40 0 -40 0 2 -167z"/>
<path d="M6990 425 c0 -52 -1 -55 -19 -45 -38 20 -91 12 -120 -18 -52 -51 -48
-159 6 -201 32 -26 99 -28 125 -4 17 15 18 15 18 0 0 -12 9 -17 30 -17 l30 0
0 170 0 170 -35 0 -35 0 0 -55z m-9 -102 c8 -9 14 -35 14 -58 0 -51 -18 -75
-56 -75 -34 0 -59 32 -59 75 0 43 25 75 59 75 16 0 35 -7 42 -17z"/>
<path d="M1080 425 c0 -28 -4 -35 -20 -35 -15 0 -20 -7 -20 -25 0 -18 5 -25
20 -25 19 0 20 -7 20 -90 0 -100 7 -110 74 -110 31 0 36 3 36 23 0 14 -9 26
-22 32 -20 9 -23 19 -26 78 -3 66 -3 67 23 67 20 0 25 5 25 25 0 20 -5 25 -25
25 -22 0 -25 4 -25 35 0 32 -2 35 -30 35 -28 0 -30 -3 -30 -35z"/>
<path d="M3120 426 c0 -28 -4 -35 -22 -38 -15 -2 -24 -11 -26 -25 -3 -19 1
-23 22 -23 26 0 26 0 26 -90 0 -100 7 -110 74 -110 31 0 36 3 36 23 0 14 -9
26 -22 32 -20 9 -23 19 -26 78 -3 66 -3 67 23 67 20 0 25 5 25 25 0 20 -5 25
-25 25 -22 0 -25 4 -25 35 0 32 -2 35 -30 35 -28 0 -30 -3 -30 -34z"/>
<path d="M6150 425 c0 -28 -4 -35 -20 -35 -15 0 -20 -7 -20 -25 0 -18 5 -25
20 -25 18 0 20 -7 20 -83 0 -99 12 -117 78 -117 38 0 42 2 42 24 0 18 -6 25
-22 28 -21 3 -23 9 -26 76 -3 72 -3 72 23 72 22 0 26 4 23 23 -2 14 -11 23
-25 25 -19 3 -23 10 -23 38 0 32 -2 34 -35 34 -33 0 -35 -2 -35 -35z"/>
<path d="M6680 426 c0 -28 -4 -35 -22 -38 -15 -2 -24 -11 -26 -25 -3 -19 1
-23 22 -23 26 0 26 0 26 -90 0 -100 7 -110 74 -110 31 0 36 3 36 23 0 14 -9
26 -22 32 -20 9 -23 19 -26 78 -3 66 -3 67 23 67 20 0 25 5 25 25 0 20 -5 25
-25 25 -22 0 -25 4 -25 35 0 32 -2 35 -30 35 -28 0 -30 -3 -30 -34z"/>
<path d="M940 265 l0 -126 33 3 32 3 0 120 0 120 -32 3 -33 3 0 -126z"/>
<path d="M1254 378 c-18 -8 -44 -46 -44 -63 0 -14 63 -2 80 15 24 24 53 26 70
5 19 -23 -3 -42 -58 -50 -70 -10 -92 -28 -92 -74 0 -24 7 -44 18 -54 21 -19
92 -23 122 -7 13 7 21 7 25 0 3 -5 19 -10 36 -10 l29 0 0 100 c0 94 -2 103
-25 125 -20 21 -33 25 -82 24 -32 0 -68 -5 -79 -11z m100 -179 c-31 -35 -93
-15 -78 25 6 15 19 20 69 28 27 5 32 -28 9 -53z"/>
<path d="M1512 362 c-37 -34 -49 -88 -33 -142 17 -56 52 -80 118 -80 47 0 59
4 84 29 39 39 39 71 0 71 -20 0 -34 -8 -45 -25 -33 -51 -96 -18 -96 50 0 64
63 101 92 55 9 -13 24 -20 45 -20 42 0 43 21 4 61 -25 25 -37 29 -84 29 -46 0
-60 -4 -85 -28z"/>
<path d="M2034 377 c-2 -7 -3 -62 -2 -123 l3 -109 33 -3 32 -3 0 125 0 126
-30 0 c-17 0 -33 -6 -36 -13z"/>
<path d="M2574 373 c4 -10 25 -66 48 -125 44 -116 43 -138 -8 -138 -19 0 -24
-5 -24 -25 0 -23 4 -25 43 -25 24 0 51 6 60 13 13 9 127 290 127 312 0 3 -15
5 -34 5 -34 0 -35 -2 -56 -67 -12 -38 -24 -75 -27 -83 -3 -8 -17 20 -32 65
-28 80 -28 80 -66 83 -33 3 -37 1 -31 -15z"/>
<path d="M2862 370 c-26 -24 -29 -72 -7 -94 15 -14 75 -36 101 -36 6 0 17 -7
24 -15 10 -12 10 -18 0 -30 -17 -21 -46 -19 -70 5 -11 11 -33 20 -50 20 -34 0
-34 0 -19 -33 15 -33 49 -47 113 -47 128 0 147 121 24 150 -66 16 -83 27 -67
46 15 18 40 18 65 -1 25 -19 74 -20 74 -1 0 8 -12 24 -26 35 -37 29 -131 30
-162 1z"/>
<path d="M3309 375 c-30 -16 -59 -70 -59 -109 0 -39 24 -91 51 -110 15 -10 44
-16 77 -16 46 0 58 4 83 29 16 16 29 34 29 40 0 17 -56 13 -70 -4 -26 -31
-100 -9 -100 31 0 11 19 14 90 14 l90 0 -6 28 c-11 52 -26 81 -50 97 -29 19
-100 19 -135 0z m99 -47 c26 -26 13 -38 -38 -38 -52 0 -60 8 -34 34 18 19 55
21 72 4z"/>
<path d="M3540 265 l0 -125 30 0 30 0 0 78 c0 83 16 122 49 122 33 0 41 -22
41 -113 l0 -88 33 3 32 3 5 89 c4 70 9 91 23 100 12 8 22 8 35 0 14 -9 18 -28
20 -103 l3 -91 34 0 35 0 0 99 c0 84 -3 102 -21 125 -16 20 -29 26 -60 26 -22
0 -50 -7 -63 -15 -21 -14 -24 -14 -36 0 -17 20 -88 20 -112 -2 -17 -15 -18
-15 -18 0 0 12 -9 17 -30 17 l-30 0 0 -125z"/>
<path d="M3980 370 c-12 -12 -20 -33 -20 -55 0 -39 25 -58 92 -70 47 -9 66
-29 48 -50 -18 -21 -58 -19 -72 5 -13 20 -78 30 -78 11 0 -41 48 -71 114 -71
59 0 92 16 107 53 20 47 -3 78 -71 97 -73 20 -84 28 -69 46 15 18 44 18 63 -1
17 -17 76 -21 76 -5 0 6 -11 22 -25 35 -20 21 -34 25 -85 25 -47 0 -64 -4 -80
-20z"/>
<path d="M4484 377 c-2 -7 -3 -62 -2 -123 l3 -109 33 -3 32 -3 0 79 c0 94 18
130 62 119 31 -8 38 -30 38 -124 l0 -73 30 0 30 0 0 105 c0 92 -3 108 -20 125
-25 25 -95 27 -122 3 -17 -15 -18 -15 -18 0 0 21 -58 24 -66 4z"/>
<path d="M5060 265 l0 -125 30 0 30 0 0 125 0 125 -30 0 -30 0 0 -125z"/>
<path d="M5214 378 c-18 -8 -44 -46 -44 -63 0 -3 15 -5 33 -5 21 0 36 7 45 20
14 24 54 26 72 5 19 -23 -3 -42 -61 -50 -63 -9 -92 -32 -92 -73 0 -47 27 -72
80 -72 24 0 53 5 63 10 13 7 21 7 25 0 3 -5 19 -10 34 -10 l28 0 -5 108 c-5
130 -13 142 -101 141 -31 0 -66 -5 -77 -11z m108 -162 c-20 -44 -92 -43 -92 0
0 16 14 25 54 34 40 9 53 -3 38 -34z"/>
<path d="M5871 373 c0 -10 17 -65 37 -123 l37 -105 39 0 39 0 39 115 c21 63
38 118 38 123 0 4 -14 7 -32 5 -31 -3 -33 -6 -57 -83 l-24 -80 -27 80 c-25 76
-28 80 -58 83 -26 3 -32 0 -31 -15z"/>
</g>
</svg>
